Coordinates
version=1
nRows=13
nColumns=40
inDegrees=yes

Units are S.I. units (second, meters, Newtons, ...)
If the header above contains a line with 'inDegrees', this indicates whether rotational values are in degrees (yes) or radians (no).

endheader
time	pelvis_tilt	pelvis_list	pelvis_rotation	pelvis_tx	pelvis_ty	pelvis_tz	hip_flexion_r	hip_adduction_r	hip_rotation_r	knee_angle_r	knee_angle_r_beta	ankle_angle_r	subtalar_angle_r	mtp_angle_r	hip_flexion_l	hip_adduction_l	hip_rotation_l	knee_angle_l	knee_angle_l_beta	ankle_angle_l	subtalar_angle_l	mtp_angle_l	lumbar_extension	lumbar_bending	lumbar_rotation	arm_flex_r	arm_add_r	arm_rot_r	elbow_flex_r	pro_sup_r	wrist_flex_r	wrist_dev_r	arm_flex_l	arm_add_l	arm_rot_l	elbow_flex_l	pro_sup_l	wrist_flex_l	wrist_dev_l
     15.11000000	     -3.41670567	     -7.02932243	     -4.50086203	      1.15584119	      0.87751820	     -0.47158460	      7.21958512	      8.60156172	      0.39155602	     32.82018188	      0.57282023	     14.82571537	      3.87267942	      0.00000000	     27.78811835	     -7.24870970	      1.73446645	     86.32397506	      1.50663759	     -5.95858685	     -1.57194266	      0.00000000	    -17.03396916	      8.83737286	     11.98155571	      0.00000000	    -14.97055427	      0.00000000	     75.00001322	     45.00000026	      0.00000000	      0.00000000	      0.00000000	    -14.97055427	      0.00000000	     75.00001322	     45.00000026	      0.00000000	      0.00000000
     15.12000000	     -3.76726177	     -5.78360660	     -3.62391063	      1.15558050	      0.88265569	     -0.47217682	      4.79584517	      7.29081958	      0.92642308	     30.52295102	      0.53272599	     12.34845281	      3.40919614	      0.00000000	     30.09549814	     -5.13670881	      2.63671161	     83.34665985	      1.45467363	     -6.00620534	     -2.98158450	      0.00000000	    -16.14683305	      7.05453373	     12.52931184	      0.00000000	    -14.97070207	      0.00000000	     75.00001482	     45.00000026	      0.00000000	      0.00000000	      0.00000000	    -14.97070207	      0.00000000	     75.00001482	     45.00000026	      0.00000000	      0.00000000
     15.13000000	     -4.23322659	     -4.37266432	     -2.80355817	      1.15592832	      0.88816553	     -0.47297029	      2.52931825	      5.72930337	      1.10470016	     28.23778017	      0.49284224	      9.38989026	      2.91674936	      0.00000000	     32.03500139	     -2.89485728	      3.23651073	     79.70778223	      1.39116324	     -5.07202645	     -4.21000208	      0.00000000	    -15.11787519	      5.02855214	     12.85813847	      0.00000000	    -14.97081439	      0.00000000	     75.00001602	     45.00000026	      0.00000000	      0.00000000	      0.00000000	    -14.97081439	      0.00000000	     75.00001602	     45.00000026	      0.00000000	      0.00000000
     15.14000000	     -4.97579241	     -2.87774100	     -2.29552700	      1.15612273	      0.89358634	     -0.47332329	      0.75407466	      4.11230158	      1.32841073	     26.08935690	      0.45534518	      5.73487965	      3.61513584	      0.00000000	     33.92206252	     -0.83341134	      3.39921598	     75.48185156	      1.31740684	     -5.00904152	     -5.46431469	      0.00000000	    -13.79862713	      3.07188594	     13.17340702	      0.00000000	    -14.97089507	      0.00000000	     75.00001689	     45.00000026	      0.00000000	      0.00000000	      0.00000000	    -14.97089507	      0.00000000	     75.00001689	     45.00000026	      0.00000000	      0.00000000
     15.15000000	     -5.48204938	     -1.59297215	     -1.72534607	      1.15675289	      0.89945263	     -0.47395749	     -1.38079895	      2.70845239	      1.33447396	     23.62457497	      0.41232662	      1.43858810	      3.46872390	      0.00000000	     35.08048612	      1.13103753	      3.71043172	     70.55061901	      1.23134059	     -6.03785813	     -8.46561728	      0.00000000	    -12.90620957	      1.09397053	     13.68086383	      0.00000000	    -14.97103572	      0.00000000	     75.00001839	     45.00000026	      0.00000000	      0.00000000	      0.00000000	    -14.97103572	      0.00000000	     75.00001839	     45.00000026	      0.00000000	      0.00000000
     15.16000000	     -6.26406367	     -0.31570994	     -1.24675203	      1.15747739	      0.90471006	     -0.47471532	     -3.05231125	      1.26459623	      1.09812187	     21.33790276	      0.37241666	     -3.23667293	      4.10631386	      0.00000000	     36.28670814	      2.99089005	      3.91869471	     65.23694252	      1.13859944	     -6.03951961	    -10.34111437	      0.00000000	    -11.71726328	     -0.83120599	     14.40927966	      0.00000000	    -14.97113266	      0.00000000	     75.00001942	     45.00000026	      0.00000000	      0.00000000	      0.00000000	    -14.97113266	      0.00000000	     75.00001942	     45.00000026	      0.00000000	      0.00000000
     15.17000000	     -6.97014067	      0.76846740	     -0.81042916	      1.15835738	      0.90994639	     -0.47526181	     -4.77386844	      0.06127652	      0.98339792	     18.95240502	      0.33078187	     -8.20217437	      4.53526132	      0.00000000	     37.00265683	      4.56221240	      4.29339543	     59.31565319	      1.03525345	     -6.49865466	    -12.22239546	      0.00000000	    -10.65004992	     -2.58083237	     15.10221522	      0.00000000	    -14.97122382	      0.00000000	     75.00002039	     45.00000026	      0.00000000	      0.00000000	      0.00000000	    -14.97122382	      0.00000000	     75.00002039	     45.00000026	      0.00000000	      0.00000000
     15.18000000	     -7.76509980	      1.75840008	     -0.46286828	      1.15943015	      0.91457492	     -0.47593629	     -6.22940991	     -1.06269966	      0.87921665	     16.73737646	      0.29212233	    -13.38500145	      5.05222554	      0.00000000	     37.48635909	      5.88880959	      4.51905076	     52.86689253	      0.92270134	     -6.84550849	    -13.59515691	      0.00000000	     -9.42502309	     -4.13723023	     15.76301856	      0.00000000	    -14.97130267	      0.00000000	     75.00002122	     45.00000026	      0.00000000	      0.00000000	      0.00000000	    -14.97130267	      0.00000000	     75.00002122	     45.00000026	      0.00000000	      0.00000000
     15.19000000	     -8.43810570	      2.60977802	     -0.05980832	      1.16049900	      0.91913948	     -0.47675910	     -7.60451389	     -1.97192400	      1.02630333	     14.81088596	      0.25849873	    -18.71164150	      4.99072167	      0.00000000	     37.44725797	      7.04535270	      5.00574502	     45.90524276	      0.80119763	     -6.82584290	    -13.80070831	      0.00000000	     -8.47760155	     -5.58816448	     16.16717823	      0.00000000	    -14.97139905	      0.00000000	     75.00002223	     45.00000026	      0.00000000	      0.00000000	      0.00000000	    -14.97139905	      0.00000000	     75.00002223	     45.00000026	      0.00000000	      0.00000000
     15.20000000	     -9.08835983	      3.11607953	      0.27448419	      1.16176151	      0.92289283	     -0.47755816	     -8.62061449	     -2.49512224	      1.32901317	     13.63841253	      0.23803520	    -23.17933730	      4.53231968	      0.00000000	     37.18725685	      7.75959691	      5.48780653	     38.88270800	      0.67863128	     -6.25675439	    -12.96928615	      0.00000000	     -7.53908564	     -6.61558937	     16.72553054	      0.00000000	    -14.97149450	      0.00000000	     75.00002324	     45.00000026	      0.00000000	      0.00000000	      0.00000000	    -14.97149450	      0.00000000	     75.00002324	     45.00000026	      0.00000000	      0.00000000
     15.21000000	     -9.55468738	      3.26507969	      0.48297687	      1.16309933	      0.92583447	     -0.47807006	     -9.39924189	     -2.52564623	      2.33849532	     13.29488409	      0.23203950	    -26.85595381	      3.20726071	      0.00000000	     36.66308637	      7.94780727	      5.84262293	     32.13753557	      0.56090581	     -5.21138920	    -10.49367332	      0.00000000	     -6.79258274	     -7.20586088	     17.30732916	      0.00000000	    -14.97167136	      0.00000000	     75.00002508	     45.00000026	      0.00000000	      0.00000000	      0.00000000	    -14.97167136	      0.00000000	     75.00002508	     45.00000026	      0.00000000	      0.00000000
     15.22000000	     -9.79029069	      2.97435057	      0.63385533	      1.16461026	      0.92822775	     -0.47852903	    -10.09271678	     -1.99265790	      3.55730611	     13.52003509	      0.23596913	    -29.77349936	      1.68208373	      0.00000000	     35.86668443	      7.64375703	      6.31944324	     25.90916559	      0.45220025	     -3.82442251	     -6.42135824	      0.00000000	     -6.27824567	     -7.26952819	     17.85042871	      0.00000000	    -14.97184916	      0.00000000	     75.00002693	     45.00000026	      0.00000000	      0.00000000	      0.00000000	    -14.97184916	      0.00000000	     75.00002693	     45.00000026	      0.00000000	      0.00000000
     15.23000000	     -9.80064475	      2.65265227	      0.80040015	      1.16587419	      0.92978171	     -0.47904449	    -10.46792546	     -1.39979319	      4.97707008	     15.02159957	      0.26217637	    -31.50603649	      0.03984511	      0.00000000	     34.79376526	      7.29878164	      6.76595394	     20.24282207	      0.35330390	     -2.56396280	     -1.66360155	      0.00000000	     -6.09435412	     -7.26318120	     18.23478900	      0.00000000	    -14.97195790	      0.00000000	     75.00002806	     45.00000026	      0.00000000	      0.00000000	      0.00000000	    -14.97195790	      0.00000000	     75.00002806	     45.00000026	      0.00000000	      0.00000000
